<?xml version="1.0" standalone="no"?>
<!DOCTYPE svg PUBLIC "-//W3C//DTD SVG 20010904//EN"
 "http://www.w3.org/TR/2001/REC-SVG-20010904/DTD/svg10.dtd">
<svg version="1.0" xmlns="http://www.w3.org/2000/svg"
 width="500.000000pt" height="500.000000pt" viewBox="0 0 500.000000 500.000000"
 preserveAspectRatio="xMidYMid meet">

<g transform="translate(0.000000,500.000000) scale(0.100000,-0.100000)"
fill="#000000" stroke="none">
<path d="M2505 4556 c-4 -48 -10 -88 -14 -91 -8 -5 -163 29 -182 40 -8 4 10
-17 39 -47 47 -49 56 -54 88 -50 35 4 36 4 24 -19 -7 -13 -25 -42 -40 -64 -15
-22 -29 -45 -33 -51 -4 -6 20 3 53 20 54 28 60 34 60 63 0 17 4 34 9 37 8 6
66 -57 103 -113 21 -31 22 -19 7 64 l-11 58 48 48 c27 27 46 49 44 49 -3 -1
-41 -9 -85 -20 -44 -10 -81 -17 -83 -15 -3 2 5 17 16 33 l21 29 -29 57 -28 57
-7 -85z"/>
<path d="M2899 4472 c-14 -35 -14 -40 0 -62 16 -23 15 -23 -15 -17 -18 3 -45
9 -60 13 l-29 7 29 -31 c25 -27 28 -36 23 -73 l-6 -43 39 45 c32 36 39 41 45
27 4 -9 4 -21 1 -26 -3 -5 10 -16 29 -25 42 -20 43 -17 10 31 l-25 37 29 3
c15 2 39 15 52 29 l24 25 -35 -8 c-79 -18 -84 -15 -90 48 l-5 57 -16 -37z"/>
<path d="M2108 4450 c-3 -61 -6 -63 -93 -45 l-40 8 30 -26 c17 -14 43 -27 58
-29 l27 -3 -25 -37 c-32 -47 -32 -52 5 -33 21 11 30 23 30 41 0 35 18 27 57
-25 l33 -42 -7 46 c-5 43 -3 49 28 81 31 33 32 35 9 26 -14 -5 -43 -12 -64
-16 l-39 -8 15 24 c14 22 14 27 -2 58 l-18 35 -4 -55z"/>
<path d="M3227 4403 c-5 -18 -5 -38 -1 -44 4 -8 -3 -9 -27 -4 -28 6 -32 5 -21
-6 6 -7 12 -27 12 -43 l1 -31 18 23 c22 25 31 28 31 9 0 -8 12 -19 26 -26 l26
-11 -22 30 c-20 28 -20 30 -3 30 10 0 27 8 38 16 19 15 17 15 -22 9 l-42 -7
-3 44 -3 43 -8 -32z"/>
<path d="M1790 4386 c0 -22 3 -27 11 -19 8 8 8 16 0 30 -9 16 -10 14 -11 -11z"/>
<path d="M1722 4343 c6 -7 19 -13 29 -13 23 0 23 -4 2 -37 -17 -26 -17 -26 5
-14 12 6 22 18 22 26 0 22 12 18 38 -12 l24 -28 -7 28 c-5 19 -3 33 8 45 15
16 11 17 -58 17 -57 0 -71 -3 -63 -12z"/>
<path d="M1475 4211 c-3 -2 -5 -51 -5 -107 0 -104 -18 -180 -54 -229 -13 -19
-15 -18 -47 7 -32 23 -87 78 -175 171 -31 32 -42 38 -72 35 -31 -3 -44 -13
-99 -81 -36 -44 -63 -87 -63 -100 0 -27 64 -92 100 -101 22 -5 110 -79 110
-91 0 -3 -45 -5 -100 -5 l-100 0 0 -481 0 -480 -25 -43 c-25 -43 -49 -116
-125 -375 -37 -126 -42 -152 -38 -216 4 -55 11 -84 31 -118 26 -44 89 -107
107 -107 25 0 0 -25 -126 -131 -86 -72 -143 -128 -155 -151 -37 -73 -22 -197
48 -375 27 -71 43 -98 72 -121 145 -116 221 -162 303 -182 62 -16 95 0 192 91
43 41 82 74 87 74 4 0 40 -30 81 -66 105 -96 224 -193 293 -241 119 -83 262
-176 350 -228 123 -72 414 -220 434 -220 24 0 238 107 394 197 274 157 450
283 685 492 l84 74 56 -55 c93 -90 115 -108 149 -119 64 -21 181 32 333 151
77 60 99 96 145 241 36 112 43 214 21 273 -14 37 -40 64 -156 161 -77 64 -142
120 -145 125 -4 7 107 46 188 66 15 3 27 7 27 8 0 0 -7 24 -16 51 -8 28 -31
104 -50 169 -19 66 -41 125 -48 130 -12 11 -70 189 -81 251 -3 17 -16 66 -30
110 l-25 80 0 483 0 482 -93 0 c-52 0 -97 3 -100 7 -9 9 61 71 100 88 50 23
103 74 103 100 0 14 -27 56 -66 104 -59 72 -70 81 -100 81 -25 0 -45 -10 -74
-36 -22 -20 -40 -42 -40 -49 0 -7 -19 -29 -42 -48 -24 -20 -59 -49 -78 -66
-19 -17 -39 -31 -43 -31 -4 0 -20 26 -35 58 -22 48 -27 75 -32 177 l-5 120
-1023 1 c-562 0 -1025 -2 -1027 -5z m1995 -123 c0 -86 18 -160 55 -225 l26
-48 -33 -27 c-18 -15 -36 -28 -40 -28 -27 -1 -82 123 -101 230 l-12 65 -866 2
-866 3 -7 -50 c-10 -75 -42 -170 -73 -216 l-28 -42 -38 32 -38 32 36 76 c32
66 37 90 42 172 l6 96 968 0 969 0 0 -72z m-2300 -49 c22 -18 37 -35 35 -39
-7 -11 12 -30 130 -130 61 -52 124 -106 140 -121 99 -88 144 -127 270 -234 77
-65 149 -128 161 -139 115 -114 212 -127 325 -43 l27 19 168 -142 c93 -78 250
-210 349 -292 206 -173 258 -218 253 -223 -6 -5 -333 -35 -391 -35 -39 0 -57
-4 -57 -12 0 -7 7 -94 15 -193 19 -231 19 -245 0 -245 -8 0 -29 13 -46 28 -30
27 -31 30 -32 122 -2 82 -6 103 -30 151 -28 58 -84 112 -142 138 -16 7 -85 17
-152 21 l-122 7 -43 38 c-138 124 -188 173 -188 186 0 27 61 113 112 158 39
35 138 167 138 184 0 2 -16 1 -36 -1 -39 -5 -109 22 -118 45 -3 8 -2 11 3 8 5
-3 13 0 16 6 9 13 -55 70 -72 64 -7 -2 -15 1 -19 7 -5 7 -2 8 7 3 8 -5 -9 15
-38 43 -28 29 -57 52 -64 52 -6 0 -17 8 -24 17 -11 15 -15 16 -31 3 -16 -14
-16 -14 -4 7 13 20 12 24 -15 45 -16 13 -35 23 -42 23 -7 0 -13 5 -14 10 -2
18 -77 85 -95 85 -9 0 -15 3 -12 6 11 10 -90 96 -104 88 -7 -4 -10 -4 -6 1 10
11 -11 37 -23 29 -5 -3 -8 -1 -7 5 2 6 -17 29 -42 50 -33 30 -48 37 -57 29
-10 -8 -12 -7 -8 3 6 18 -2 29 -50 64 -22 16 -59 46 -82 68 -22 22 -46 37 -51
33 -6 -4 -8 2 -5 14 7 28 28 25 73 -11z m2729 12 c10 -18 6 -31 -11 -31 -5 0
-6 5 -3 11 4 6 -2 5 -13 -2 -12 -7 -19 -15 -17 -18 3 -2 -6 -11 -19 -20 -68
-46 -84 -59 -124 -98 -23 -24 -46 -43 -51 -43 -15 0 -82 -80 -76 -90 3 -6 -1
-7 -9 -4 -16 6 -72 -33 -71 -49 0 -5 -8 -13 -17 -18 -10 -6 -18 -15 -18 -21 0
-6 7 -5 18 3 15 13 16 12 4 -2 -8 -10 -21 -15 -33 -12 -21 6 -69 -31 -69 -53
0 -6 -9 -14 -21 -17 -12 -3 -18 -10 -14 -16 3 -6 11 -8 17 -5 7 4 8 2 4 -5 -6
-9 -11 -9 -21 -1 -17 14 -65 -18 -86 -56 -7 -13 -18 -24 -25 -24 -7 0 -32 -19
-56 -42 -24 -23 -65 -59 -92 -80 -47 -36 -67 -68 -43 -68 6 0 1 -10 -11 -22
-18 -18 -34 -23 -77 -23 -30 0 -55 -2 -55 -4 0 -18 93 -141 135 -179 52 -47
115 -136 115 -163 0 -8 -28 -39 -62 -69 -35 -30 -64 -58 -66 -62 -6 -12 -50
21 -199 147 -78 66 -177 149 -222 185 -44 36 -79 69 -78 73 1 5 47 46 102 92
l100 83 29 -17 c79 -45 94 -50 146 -50 37 -1 65 5 85 18 28 17 325 270 492
418 44 39 77 62 84 57 7 -4 9 -3 5 4 -3 6 41 51 101 103 60 50 109 99 111 108
4 19 72 81 89 81 7 0 17 -8 22 -19z m-2764 -42 c11 -16 1 -19 -13 -3 -7 8 -8
14 -3 14 5 0 13 -5 16 -11z m2181 -46 c16 -73 47 -157 74 -200 34 -54 39 -74
11 -49 -26 24 -78 131 -94 197 l-14 54 -793 0 -793 0 -14 -54 c-16 -66 -68
-173 -94 -197 -28 -25 -23 -9 15 61 19 34 42 90 52 126 9 35 18 70 20 77 3 9
174 12 813 12 l811 0 6 -27z m-1429 -79 c-3 -3 -12 -4 -19 -1 -8 3 -5 6 6 6
11 1 17 -2 13 -5z m140 0 c-3 -3 -12 -4 -19 -1 -8 3 -5 6 6 6 11 1 17 -2 13
-5z m90 0 c-3 -3 -12 -4 -19 -1 -8 3 -5 6 6 6 11 1 17 -2 13 -5z m140 0 c-3
-3 -12 -4 -19 -1 -8 3 -5 6 6 6 11 1 17 -2 13 -5z m140 0 c-3 -3 -12 -4 -19
-1 -8 3 -5 6 6 6 11 1 17 -2 13 -5z m90 0 c-3 -3 -12 -4 -19 -1 -8 3 -5 6 6 6
11 1 17 -2 13 -5z m140 0 c-3 -3 -12 -4 -19 -1 -8 3 -5 6 6 6 11 1 17 -2 13
-5z m140 0 c-3 -3 -12 -4 -19 -1 -8 3 -5 6 6 6 11 1 17 -2 13 -5z m230 0 c-3
-3 -12 -4 -19 -1 -8 3 -5 6 6 6 11 1 17 -2 13 -5z m140 0 c-3 -3 -12 -4 -19
-1 -8 3 -5 6 6 6 11 1 17 -2 13 -5z m103 -44 c0 -5 -2 -10 -4 -10 -3 0 -8 5
-11 10 -3 6 -1 10 4 10 6 0 11 -4 11 -10z m-1480 -44 c0 -3 -4 -8 -10 -11 -5
-3 -10 -1 -10 4 0 6 5 11 10 11 6 0 10 -2 10 -4z m598 -8 c17 -17 15 -38 -3
-38 -8 0 -15 5 -15 12 0 6 -3 8 -7 5 -4 -4 4 -21 16 -38 29 -39 25 -83 -7 -87
-28 -4 -52 14 -52 39 0 25 40 26 41 2 0 -13 2 -14 6 -4 3 7 -6 24 -21 38 -38
35 -30 83 14 83 9 0 21 -5 28 -12z m72 -68 c0 -64 -3 -80 -15 -80 -12 0 -15
16 -15 80 0 64 3 80 15 80 12 0 15 -16 15 -80z m78 53 l10 -28 1 28 c1 18 6
27 14 25 8 -3 13 -31 15 -81 3 -72 1 -77 -18 -77 -15 0 -20 7 -21 28 l-2 27
-4 -27 c-2 -16 -11 -28 -19 -28 -11 0 -14 17 -14 80 0 62 3 80 14 80 8 0 19
-12 24 -27z m140 15 c17 -17 15 -58 -3 -58 -8 0 -15 9 -15 20 0 11 -4 20 -10
20 -5 0 -10 -22 -10 -50 0 -27 5 -50 10 -50 6 0 10 9 10 20 0 11 7 20 16 20
11 0 14 -8 12 -32 -2 -26 -8 -34 -26 -36 -38 -6 -52 15 -52 77 0 58 11 81 40
81 9 0 21 -5 28 -12z m112 -3 c0 -8 -9 -15 -20 -15 -11 0 -20 -6 -20 -14 0 -7
9 -16 20 -19 11 -3 20 -10 20 -16 0 -6 -9 -11 -20 -11 -13 0 -20 -7 -20 -20 0
-13 7 -20 20 -20 11 0 20 -7 20 -15 0 -10 -11 -15 -35 -15 l-35 0 0 80 0 80
35 0 c24 0 35 -5 35 -15z m500 5 c0 -5 -2 -10 -4 -10 -3 0 -8 5 -11 10 -3 6
-1 10 4 10 6 0 11 -4 11 -10z m20 -40 c0 -5 -2 -10 -4 -10 -3 0 -8 5 -11 10
-3 6 -1 10 4 10 6 0 11 -4 11 -10z m-1590 -80 c0 -5 -5 -10 -11 -10 -5 0 -7 5
-4 10 3 6 8 10 11 10 2 0 4 -4 4 -10z m1635 0 c3 -5 1 -10 -4 -10 -6 0 -11 5
-11 10 0 6 2 10 4 10 3 0 8 -4 11 -10z m-2037 -57 l23 -23 -28 -11 c-15 -6
-58 -16 -95 -22 l-68 -11 0 -345 0 -346 -50 -26 -50 -27 0 423 0 422 103 9
c109 10 112 9 165 -43z m2675 37 c16 0 17 -22 15 -366 l-3 -367 -45 -13 c-24
-7 -45 -12 -47 -10 -1 1 -3 149 -3 327 l-1 326 -67 10 c-37 6 -80 16 -95 22
l-28 11 38 35 38 36 90 -5 c50 -3 98 -6 108 -6z m-1599 -66 c21 -20 20 -32 -3
-76 -20 -36 -20 -36 1 -41 34 -9 14 -32 -30 -35 -50 -4 -53 7 -17 60 14 20 24
45 24 55 -1 17 -2 17 -6 1 -6 -25 -43 -23 -43 1 0 23 25 51 45 51 7 0 21 -7
29 -16z m117 6 c16 -9 19 -22 19 -75 0 -54 -3 -66 -20 -75 -14 -8 -26 -8 -40
0 -17 9 -20 21 -20 75 0 50 4 66 18 74 21 13 20 13 43 1z m130 0 c23 -13 25
-58 4 -86 -19 -25 -19 -34 0 -34 8 0 15 -9 15 -20 0 -17 -7 -20 -40 -20 -48 0
-51 14 -15 68 14 20 25 43 25 52 -1 12 -3 11 -11 -2 -5 -10 -17 -18 -24 -18
-21 0 -19 47 3 59 21 13 20 13 43 1z m144 -10 c0 -8 -11 -17 -24 -18 l-24 -4
24 -12 c44 -21 36 -116 -10 -116 -23 0 -37 12 -45 38 -6 18 -3 22 12 22 11 0
23 -6 25 -12 3 -7 6 -1 6 14 1 21 -3 25 -19 21 -18 -5 -20 0 -20 41 l0 47 38
-3 c25 -2 37 -8 37 -18z m-1390 -55 c-16 -13 -62 -29 -142 -51 -10 -3 -13 -74
-13 -314 0 -200 -4 -310 -10 -310 -6 0 -10 113 -10 320 l0 320 28 6 c15 3 52
14 82 24 70 23 92 25 65 5z m2368 -16 l77 -23 0 -307 c0 -195 -4 -310 -10
-314 -7 -4 -10 98 -10 300 0 236 -3 306 -12 309 -83 23 -127 38 -143 52 -20
15 -20 15 0 11 11 -3 55 -15 98 -28z m-2293 -53 c0 -3 -4 -8 -10 -11 -5 -3
-10 -1 -10 4 0 6 5 11 10 11 6 0 10 -2 10 -4z m2140 -6 c0 -5 -2 -10 -4 -10
-3 0 -8 5 -11 10 -3 6 -1 10 4 10 6 0 11 -4 11 -10z m-2180 -14 c0 -3 -4 -8
-10 -11 -5 -3 -10 -1 -10 4 0 6 5 11 10 11 6 0 10 -2 10 -4z m2220 -6 c0 -5
-2 -10 -4 -10 -3 0 -8 5 -11 10 -3 6 -1 10 4 10 6 0 11 -4 11 -10z m-2323
-132 c-3 -8 -6 -5 -6 6 -1 11 2 17 5 13 3 -3 4 -12 1 -19z m2413 2 c0 -5 -5
-10 -11 -10 -5 0 -7 5 -4 10 3 6 8 10 11 10 2 0 4 -4 4 -10z m-2413 -52 c-3
-8 -6 -5 -6 6 -1 11 2 17 5 13 3 -3 4 -12 1 -19z m2410 0 c-3 -8 -6 -5 -6 6
-1 11 2 17 5 13 3 -3 4 -12 1 -19z m-2410 -140 c-3 -8 -6 -5 -6 6 -1 11 2 17
5 13 3 -3 4 -12 1 -19z m2413 2 c0 -5 -2 -10 -4 -10 -3 0 -8 5 -11 10 -3 6 -1
10 4 10 6 0 11 -4 11 -10z m-2413 -52 c-3 -8 -6 -5 -6 6 -1 11 2 17 5 13 3 -3
4 -12 1 -19z m2413 6 c0 -8 -5 -12 -10 -9 -6 4 -8 11 -5 16 9 14 15 11 15 -7z
m-2413 -146 c-3 -8 -6 -5 -6 6 -1 11 2 17 5 13 3 -3 4 -12 1 -19z m2413 6 c0
-8 -5 -12 -10 -9 -6 4 -8 11 -5 16 9 14 15 11 15 -7z m-2413 -56 c-3 -8 -6 -5
-6 6 -1 11 2 17 5 13 3 -3 4 -12 1 -19z m2410 0 c-3 -8 -6 -5 -6 6 -1 11 2 17
5 13 3 -3 4 -12 1 -19z m222 -150 c12 -34 21 -67 21 -73 0 -7 -28 -20 -62 -30
-35 -10 -67 -22 -71 -25 -8 -7 19 -118 33 -133 4 -5 35 -1 70 8 35 9 66 13 70
8 9 -10 40 -102 40 -118 0 -6 -31 -21 -69 -33 l-69 -23 25 -82 c14 -45 26 -83
28 -85 2 -2 36 6 75 18 40 12 76 18 80 13 13 -14 49 -132 42 -137 -4 -2 -63
-20 -132 -41 -69 -20 -137 -40 -151 -45 -26 -8 -27 -7 -54 83 -15 51 -39 133
-55 182 -15 50 -45 146 -65 215 -57 192 -83 268 -84 240 -1 -14 10 -144 24
-290 13 -146 27 -313 31 -371 l7 -107 -92 -21 c-51 -11 -98 -21 -106 -21 -13
0 -35 56 -100 250 -19 58 -64 190 -100 295 -36 104 -64 194 -61 201 4 11 134
41 139 33 4 -5 109 -330 137 -422 12 -38 23 -67 24 -65 2 1 -3 50 -10 108 -17
127 -45 403 -42 405 2 1 44 11 93 23 50 12 146 40 215 61 69 22 130 40 137 40
6 1 21 -27 32 -61z m-2666 11 c70 -19 137 -98 137 -161 0 -13 -12 -62 -26
-111 -21 -68 -31 -86 -43 -83 -9 3 -42 12 -73 21 -32 9 -58 19 -58 23 0 4 7
32 15 62 8 30 15 67 15 83 0 23 -4 27 -30 27 -26 0 -30 -5 -40 -42 -6 -24 -22
-77 -35 -118 -54 -172 -87 -299 -82 -314 9 -23 44 -19 61 7 8 12 23 52 32 90
21 77 21 77 112 46 52 -17 62 -24 57 -39 -3 -10 -15 -51 -26 -90 -44 -161
-121 -208 -266 -165 -61 18 -107 65 -123 126 -13 48 -7 86 46 264 85 286 100
320 163 362 38 26 100 30 164 12z m342 -89 c119 -23 163 -43 182 -81 23 -44
11 -193 -19 -257 -7 -14 -27 -36 -44 -47 -31 -21 -31 -21 -13 -44 11 -13 19
-37 19 -53 0 -26 -58 -328 -64 -335 -1 -1 -33 3 -72 11 l-69 13 2 47 c2 26 14
102 28 169 22 105 23 123 11 135 -30 30 -41 6 -75 -164 -19 -93 -35 -170 -36
-172 -3 -3 -148 28 -153 34 -2 1 6 49 17 106 28 135 131 660 131 665 0 2 10 1
23 -1 12 -3 72 -15 132 -26z m393 -65 c2 -2 -3 -57 -12 -122 -8 -65 -29 -226
-46 -358 -39 -308 -39 -305 -53 -305 -20 0 -129 19 -133 23 -5 5 59 528 92
753 l4 30 72 -8 c40 -5 74 -11 76 -13z m1205 -110 c10 -71 31 -220 47 -330 16
-110 33 -225 36 -256 7 -64 13 -59 -97 -75 l-46 -6 -21 139 c-12 76 -24 161
-27 188 -4 28 -20 138 -36 246 -16 108 -29 201 -29 207 0 12 52 20 115 18 l40
-1 18 -130z m-905 83 c43 -13 90 -64 103 -111 6 -22 7 -72 3 -122 l-7 -85 -41
0 c-22 0 -58 3 -80 7 l-38 6 6 72 c6 60 4 76 -10 89 -20 21 -36 16 -50 -15
-13 -27 -38 -438 -28 -463 8 -22 51 -21 58 2 2 9 8 52 12 95 l6 77 81 0 80 0
-6 -102 c-8 -130 -32 -183 -97 -215 -79 -40 -191 -26 -246 32 -54 57 -58 93
-40 351 9 126 20 244 25 262 35 120 130 163 269 120z m581 -253 c12 -143 24
-288 27 -323 l6 -62 82 2 81 3 5 -62 5 -62 -50 -5 c-158 -16 -268 -21 -271
-11 -4 11 -37 394 -54 619 -6 81 -8 151 -5 155 8 8 138 18 146 11 4 -3 16
-122 28 -265z m-209 -255 l0 -50 -47 0 c-27 0 -78 -3 -115 -7 l-68 -6 0 57 0
56 115 0 115 0 0 -50z m1461 -268 c63 -53 130 -108 147 -122 42 -32 72 -80 72
-114 0 -29 -69 -174 -124 -258 -18 -29 -62 -80 -97 -113 -34 -33 -74 -72 -88
-86 -37 -37 -84 -59 -125 -59 -31 0 -50 13 -148 102 -62 55 -145 131 -183 167
-39 36 -115 107 -169 156 -55 50 -111 101 -126 115 -14 14 -49 46 -77 71 l-51
46 32 11 c18 7 83 19 145 27 62 8 115 17 119 19 4 2 86 20 182 40 96 21 218
50 270 66 52 15 97 29 100 29 3 0 57 -43 121 -97z m-3033 73 c65 0 72 -2 72
-20 0 -18 20 -24 193 -59 276 -55 334 -66 407 -72 72 -5 82 -10 58 -28 -17
-12 -152 -135 -273 -247 -33 -31 -145 -133 -248 -227 -165 -151 -193 -172
-222 -172 -52 0 -82 15 -147 78 -136 127 -164 164 -239 313 -71 142 -67 164
37 253 72 59 147 124 199 169 24 22 36 25 60 19 17 -4 63 -7 103 -7z m1507
-26 l44 -11 7 -80 7 -81 101 7 c116 8 112 10 164 -84 36 -63 62 -163 62 -236
0 -68 -33 -193 -67 -252 -46 -79 -133 -158 -220 -200 -74 -35 -84 -37 -193
-40 -99 -3 -124 -1 -175 18 -33 12 -78 25 -100 29 -58 11 -83 27 -90 61 -4 16
-11 32 -16 36 -5 3 -26 31 -48 62 -113 168 -117 395 -8 556 l32 48 95 1 c84 2
101 6 141 29 50 30 105 86 119 124 8 20 16 24 55 24 26 0 66 -5 90 -11z m765
-533 c0 -3 -4 -8 -10 -11 -5 -3 -10 -1 -10 4 0 6 5 11 10 11 6 0 10 -2 10 -4z
m-1719 -138 c138 -130 473 -352 731 -486 l117 -61 138 73 c333 176 641 391
814 569 15 15 30 24 33 19 8 -14 -105 -117 -279 -255 -44 -35 -317 -219 -335
-225 -8 -3 -33 -17 -55 -32 -22 -15 -53 -34 -70 -42 -16 -8 -74 -38 -127 -66
-53 -29 -107 -52 -119 -52 -23 0 -243 111 -312 158 -23 15 -49 31 -58 34 -19
8 -291 190 -334 224 -184 148 -287 242 -279 256 3 5 31 -15 61 -44 31 -29 64
-60 74 -70z m1689 108 c0 -3 -4 -8 -10 -11 -5 -3 -10 -1 -10 4 0 6 5 11 10 11
6 0 10 -2 10 -4z m-1844 -77 c46 -49 212 -190 294 -250 174 -129 387 -257 607
-368 l102 -52 91 46 c349 175 662 386 880 592 l69 64 38 -34 38 -35 -75 -71
c-111 -106 -322 -268 -470 -361 -176 -111 -541 -310 -568 -310 -13 0 -192 87
-287 139 -286 157 -591 372 -759 535 l-69 66 33 35 c19 19 37 35 40 35 3 0 19
-14 36 -31z m249 11 c3 -5 1 -10 -4 -10 -6 0 -11 5 -11 10 0 6 2 10 4 10 3 0
8 -4 11 -10z m80 -60 c3 -5 1 -10 -4 -10 -6 0 -11 5 -11 10 0 6 2 10 4 10 3 0
8 -4 11 -10z m1365 0 c0 -5 -5 -10 -11 -10 -5 0 -7 5 -4 10 3 6 8 10 11 10 2
0 4 -4 4 -10z m-1290 -60 c0 -5 -2 -10 -4 -10 -3 0 -8 5 -11 10 -3 6 -1 10 4
10 6 0 11 -4 11 -10z m1220 6 c0 -3 -4 -8 -10 -11 -5 -3 -10 -1 -10 4 0 6 5
11 10 11 6 0 10 -2 10 -4z m-40 -30 c0 -3 -4 -8 -10 -11 -5 -3 -10 -1 -10 4 0
6 5 11 10 11 6 0 10 -2 10 -4z m-1105 -26 c3 -5 1 -10 -4 -10 -6 0 -11 5 -11
10 0 6 2 10 4 10 3 0 8 -4 11 -10z m1065 0 c0 -5 -5 -10 -11 -10 -5 0 -7 5 -4
10 3 6 8 10 11 10 2 0 4 -4 4 -10z m-1025 -30 c3 -5 1 -10 -4 -10 -6 0 -11 5
-11 10 0 6 2 10 4 10 3 0 8 -4 11 -10z m985 0 c0 -5 -5 -10 -11 -10 -5 0 -7 5
-4 10 3 6 8 10 11 10 2 0 4 -4 4 -10z m-80 -50 c0 -5 -5 -10 -11 -10 -5 0 -7
5 -4 10 3 6 8 10 11 10 2 0 4 -4 4 -10z m-745 -50 c3 -5 1 -10 -4 -10 -6 0
-11 5 -11 10 0 6 2 10 4 10 3 0 8 -4 11 -10z m665 0 c0 -5 -5 -10 -11 -10 -5
0 -7 5 -4 10 3 6 8 10 11 10 2 0 4 -4 4 -10z m-40 -24 c0 -3 -4 -8 -10 -11 -5
-3 -10 -1 -10 4 0 6 5 11 10 11 6 0 10 -2 10 -4z m-460 -76 c0 -5 -2 -10 -4
-10 -3 0 -8 5 -11 10 -3 6 -1 10 4 10 6 0 11 -4 11 -10z m340 6 c0 -3 -4 -8
-10 -11 -5 -3 -10 -1 -10 4 0 6 5 11 10 11 6 0 10 -2 10 -4z m-295 -26 c3 -5
2 -10 -4 -10 -5 0 -13 5 -16 10 -3 6 -2 10 4 10 5 0 13 -4 16 -10z m250 0 c-3
-5 -11 -10 -16 -10 -6 0 -7 5 -4 10 3 6 11 10 16 10 6 0 7 -4 4 -10z"/>
<path d="M2463 3515 c0 -27 2 -38 4 -22 2 15 2 37 0 50 -2 12 -4 0 -4 -28z"/>
<path d="M1569 2421 c-15 -69 -15 -69 7 -74 29 -5 40 2 53 36 16 42 14 94 -5
101 -34 13 -41 5 -55 -63z"/>
</g>
</svg>
